# xmcd CD database file
#
# Track frame offsets:
#	150
#	21982
#	32692
#	62987
#	78535
#	93000
#	115457
#	150622
#	166727
#	192085
#
# Disc length: 2723 seconds
#
# Revision: 1
# Processed by: cddbd v1.5.2PL0 Copyright (c) Steve Scherf et al.
# Submitted via: CDex 1.70beta2
#
DISCID=760aa10a
DTITLE=Cannonball Adderley - Cannonball's Bossa Nova
DYEAR=1962
DGENRE=Jazz
TTITLE0=Clouds
TTITLE1=Minha saudades
TTITLE2=Corcovado
TTITLE3=Batida diferentes
TTITLE4=Joyce's sambas
TTITLE5=Groovy sambas
TTITLE6=O amor em paz (Once I Loved)
TTITLE7=Sambops
TTITLE8=Corcovado (alt tk)
TTITLE9=Clouds (single version)
EXTD=YEAR: 1962
EXTT0=
EXTT1=
EXTT2=
EXTT3=
EXTT4=
EXTT5=
EXTT6=
EXTT7=
EXTT8=
EXTT9=
PLAYORDER=
